<svg width="16" height="16" viewBox="0 0 16 16" fill="none" xmlns="http://www.w3.org/2000/svg">
<rect width="16" height="16" rx="3" fill="url(#paint0_linear_2_26)"/>
<rect width="16" height="16" rx="3" fill="url(#paint1_radial_2_26)" fill-opacity="0.5" style="mix-blend-mode:overlay"/>
<rect width="16" height="16" rx="3" fill="url(#paint2_radial_2_26)" style="mix-blend-mode:soft-light"/>
<rect width="16" height="16" rx="3" fill="url(#paint3_radial_2_26)" fill-opacity="0.5" style="mix-blend-mode:overlay"/>
<rect width="16" height="16" rx="3" fill="url(#paint4_radial_2_26)" style="mix-blend-mode:soft-light"/>
<g clip-path="url(#clip0_2_26)">
<path d="M11.2813 4.71875H10.8511C10.7758 4.506 10.6367 4.32172 10.4526 4.19118C10.2685 4.06064 10.0486 3.99022 9.82293 3.98959H9.45834C9.45834 3.69951 9.34311 3.42131 9.13799 3.21619C8.93287 3.01107 8.65467 2.89584 8.36459 2.89584H7.63543C7.34535 2.89584 7.06715 3.01107 6.86203 3.21619C6.65691 3.42131 6.54168 3.69951 6.54168 3.98959H6.17709C5.95144 3.99022 5.7315 4.06064 5.54743 4.19118C5.36337 4.32172 5.22419 4.506 5.14897 4.71875H4.71876C4.52537 4.71875 4.33991 4.79558 4.20316 4.93232C4.06642 5.06907 3.98959 5.25453 3.98959 5.44792V12.375C3.98959 12.5684 4.06642 12.7539 4.20316 12.8906C4.33991 13.0273 4.52537 13.1042 4.71876 13.1042H11.2813C11.4746 13.1042 11.6601 13.0273 11.7969 12.8906C11.9336 12.7539 12.0104 12.5684 12.0104 12.375V5.44792C12.0104 5.25453 11.9336 5.06907 11.7969 4.93232C11.6601 4.79558 11.4746 4.71875 11.2813 4.71875V4.71875ZM6.17709 4.71875H6.54168C6.73506 4.71875 6.92053 4.64193 7.05728 4.50518C7.19402 4.36844 7.27084 4.18297 7.27084 3.98959C7.27084 3.89289 7.30926 3.80016 7.37763 3.73179C7.446 3.66341 7.53873 3.625 7.63543 3.625H8.36459C8.46129 3.625 8.55402 3.66341 8.62239 3.73179C8.69077 3.80016 8.72918 3.89289 8.72918 3.98959C8.72918 4.18297 8.806 4.36844 8.94275 4.50518C9.07949 4.64193 9.26496 4.71875 9.45834 4.71875H9.82293C9.91962 4.71875 10.0124 4.75716 10.0807 4.82554C10.1491 4.89391 10.1875 4.98664 10.1875 5.08334V5.44792H5.81251V5.08334C5.81251 4.98664 5.85092 4.89391 5.91929 4.82554C5.98767 4.75716 6.0804 4.71875 6.17709 4.71875V4.71875ZM11.2813 12.375H4.71876V5.44792H5.08334C5.08334 5.64131 5.16017 5.82677 5.29691 5.96352C5.43366 6.10026 5.61912 6.17709 5.81251 6.17709H10.1875C10.3809 6.17709 10.5664 6.10026 10.7031 5.96352C10.8399 5.82677 10.9167 5.64131 10.9167 5.44792H11.2813V12.375Z" fill="white"/>
<path d="M10.1875 6.90626H5.81251C5.71581 6.90626 5.62308 6.94467 5.55471 7.01304C5.48633 7.08141 5.44792 7.17415 5.44792 7.27084C5.44792 7.36753 5.48633 7.46027 5.55471 7.52864C5.62308 7.59701 5.71581 7.63542 5.81251 7.63542H10.1875C10.2842 7.63542 10.3769 7.59701 10.4453 7.52864C10.5137 7.46027 10.5521 7.36753 10.5521 7.27084C10.5521 7.17415 10.5137 7.08141 10.4453 7.01304C10.3769 6.94467 10.2842 6.90626 10.1875 6.90626Z" fill="white"/>
<path d="M10.1875 8.72917H5.81251C5.71581 8.72917 5.62308 8.76758 5.55471 8.83596C5.48633 8.90433 5.44792 8.99706 5.44792 9.09376C5.44792 9.19045 5.48633 9.28318 5.55471 9.35155C5.62308 9.41993 5.71581 9.45834 5.81251 9.45834H10.1875C10.2842 9.45834 10.3769 9.41993 10.4453 9.35155C10.5137 9.28318 10.5521 9.19045 10.5521 9.09376C10.5521 8.99706 10.5137 8.90433 10.4453 8.83596C10.3769 8.76758 10.2842 8.72917 10.1875 8.72917Z" fill="white"/>
<path d="M8.00001 10.5521H5.81251C5.71581 10.5521 5.62308 10.5905 5.55471 10.6589C5.48633 10.7272 5.44792 10.82 5.44792 10.9167C5.44792 11.0134 5.48633 11.1061 5.55471 11.1745C5.62308 11.2428 5.71581 11.2813 5.81251 11.2813H8.00001C8.0967 11.2813 8.18943 11.2428 8.2578 11.1745C8.32618 11.1061 8.36459 11.0134 8.36459 10.9167C8.36459 10.82 8.32618 10.7272 8.2578 10.6589C8.18943 10.5905 8.0967 10.5521 8.00001 10.5521Z" fill="white"/>
<path d="M7.74115 4.61302C7.77522 4.64681 7.81562 4.67355 7.86004 4.69169C7.90446 4.70983 7.95202 4.71903 8.00001 4.71875H8.06928C8.09342 4.71537 8.11684 4.70798 8.13855 4.69688C8.16094 4.6896 8.18191 4.6785 8.20053 4.66407L8.25886 4.62032C8.29205 4.58564 8.31807 4.54476 8.33542 4.5C8.35506 4.45391 8.36499 4.40427 8.36459 4.35417C8.36638 4.3299 8.36638 4.30553 8.36459 4.28125C8.3606 4.25841 8.35323 4.23629 8.34271 4.21563C8.33473 4.1924 8.3237 4.17033 8.3099 4.15L8.26615 4.09532C8.23226 4.06114 8.19194 4.03402 8.14751 4.01551C8.10308 3.997 8.05543 3.98747 8.0073 3.98747C7.95917 3.98747 7.91151 3.997 7.86709 4.01551C7.82266 4.03402 7.78234 4.06114 7.74844 4.09532C7.71333 4.12878 7.68525 4.16891 7.66585 4.21335C7.64644 4.2578 7.6361 4.30567 7.63542 4.35417C7.636 4.40181 7.64591 4.44888 7.66459 4.49271C7.68194 4.53746 7.70796 4.57835 7.74115 4.61302V4.61302Z" fill="white"/>
</g>
<g clip-path="url(#clip1_2_26)">
<path d="M12.4968 6.83962C12.7206 6.61585 13.0841 6.61585 13.3079 6.83962L13.6606 7.19259C13.8844 7.4163 13.8844 7.77939 13.6606 8.00318L13.2273 8.43645L12.0636 7.27289L12.4968 6.83962ZM13.025 8.63876L10.9374 10.7254C10.8443 10.8185 10.7288 10.8875 10.6026 10.9242L9.52545 11.2411C9.45007 11.2634 9.36852 11.2428 9.31293 11.1793C9.25734 11.1318 9.23655 11.0504 9.25873 10.9743L9.57558 9.89739C9.61282 9.77117 9.68112 9.65569 9.77431 9.56259L11.8612 7.47538L13.025 8.63876Z" fill="#FDFDFD"/>
</g>
<defs>
<linearGradient id="paint0_linear_2_26" x1="8" y1="0" x2="8" y2="16" gradientUnits="userSpaceOnUse">
<stop stop-color="#F84F4F"/>
<stop offset="0.848958" stop-color="#FB7A7A"/>
</linearGradient>
<radialGradient id="paint1_radial_2_26" cx="0" cy="0" r="1" gradientUnits="userSpaceOnUse" gradientTransform="translate(2.75 17.375) rotate(-55.8025) scale(13.0475)">
<stop/>
<stop offset="1" stop-opacity="0"/>
</radialGradient>
<radialGradient id="paint2_radial_2_26" cx="0" cy="0" r="1" gradientUnits="userSpaceOnUse" gradientTransform="translate(3.83333 17.2917) rotate(-62.3005) scale(11.2944)">
<stop stop-color="white"/>
<stop offset="1" stop-color="white" stop-opacity="0"/>
</radialGradient>
<radialGradient id="paint3_radial_2_26" cx="0" cy="0" r="1" gradientUnits="userSpaceOnUse" gradientTransform="translate(16.9583 19.5) rotate(-128.598) scale(12.1555)">
<stop/>
<stop offset="1" stop-opacity="0"/>
</radialGradient>
<radialGradient id="paint4_radial_2_26" cx="0" cy="0" r="1" gradientUnits="userSpaceOnUse" gradientTransform="translate(16.375 18.5) rotate(-128.577) scale(13.431)">
<stop stop-color="white"/>
<stop offset="1" stop-color="white" stop-opacity="0"/>
</radialGradient>
<clipPath id="clip0_2_26">
<rect width="11.6667" height="11.6667" fill="white" transform="translate(2.16667 2.16667)"/>
</clipPath>
<clipPath id="clip1_2_26">
<rect width="4.58333" height="4.58333" fill="white" transform="translate(9.25 6.66667)"/>
</clipPath>
</defs>
</svg>
