<svg width="37" height="33" viewBox="0 0 37 33" fill="none" xmlns="http://www.w3.org/2000/svg">
<path fill-rule="evenodd" clip-rule="evenodd" d="M35 10H13C12.4477 10 12 10.4477 12 11V26C12 26.5523 12.4477 27 13 27H35C35.5523 27 36 26.5523 36 26V11C36 10.4477 35.5523 10 35 10ZM13 9C11.8954 9 11 9.89543 11 11V26C11 27.1046 11.8954 28 13 28H35C36.1046 28 37 27.1046 37 26V11C37 9.89543 36.1046 9 35 9H13Z" fill="white"/>
<path fill-rule="evenodd" clip-rule="evenodd" d="M36 24H12V23H36V24Z" fill="white"/>
<path fill-rule="evenodd" clip-rule="evenodd" d="M23 25.5C23 25.2239 23.2239 25 23.5 25H24.5C24.7761 25 25 25.2239 25 25.5C25 25.7761 24.7761 26 24.5 26H23.5C23.2239 26 23 25.7761 23 25.5Z" fill="white"/>
<path fill-rule="evenodd" clip-rule="evenodd" d="M21 30L22 27L22.9487 27.3162L21.9487 30.3162L21 30Z" fill="white"/>
<path fill-rule="evenodd" clip-rule="evenodd" d="M27 30L26 27L25.0513 27.3162L26.0513 30.3162L27 30Z" fill="white"/>
<path fill-rule="evenodd" clip-rule="evenodd" d="M30 31H18V32H30V31ZM18 30C17.4477 30 17 30.4477 17 31V32C17 32.5523 17.4477 33 18 33H30C30.5523 33 31 32.5523 31 32V31C31 30.4477 30.5523 30 30 30H18Z" fill="white"/>
<rect width="22.0165" height="22.0165" rx="3" fill="url(#paint0_linear_117_36)"/>
<rect width="22.0165" height="22.0165" rx="3" fill="url(#paint1_radial_117_36)" fill-opacity="0.5" style="mix-blend-mode:overlay"/>
<rect width="22.0165" height="22.0165" rx="3" fill="url(#paint2_radial_117_36)" style="mix-blend-mode:soft-light"/>
<rect width="22.0165" height="22.0165" rx="3" fill="url(#paint3_radial_117_36)" fill-opacity="0.5" style="mix-blend-mode:overlay"/>
<rect width="22.0165" height="22.0165" rx="3" fill="url(#paint4_radial_117_36)" style="mix-blend-mode:soft-light"/>
<path d="M15.5232 6.4931H14.9312C14.8277 6.20035 14.6362 5.94678 14.3829 5.76714C14.1296 5.58751 13.827 5.49062 13.5165 5.48975H13.0148C13.0148 5.09059 12.8562 4.70777 12.574 4.42553C12.2917 4.14328 11.9089 3.98471 11.5098 3.98471H10.5064C10.1073 3.98471 9.72444 4.14328 9.44219 4.42553C9.15994 4.70777 9.00137 5.09059 9.00137 5.48975H8.4997C8.18919 5.49062 7.88654 5.58751 7.63326 5.76714C7.37998 5.94678 7.18847 6.20035 7.08496 6.4931H6.49298C6.22687 6.4931 5.97167 6.59882 5.7835 6.78698C5.59533 6.97515 5.48962 7.23036 5.48962 7.49646V17.0284C5.48962 17.2945 5.59533 17.5497 5.7835 17.7378C5.97167 17.926 6.22687 18.0317 6.49298 18.0317H15.5232C15.7893 18.0317 16.0445 17.926 16.2327 17.7378C16.4208 17.5497 16.5266 17.2945 16.5266 17.0284V7.49646C16.5266 7.23036 16.4208 6.97515 16.2327 6.78698C16.0445 6.59882 15.7893 6.4931 15.5232 6.4931V6.4931ZM8.4997 6.4931H9.00137C9.26748 6.4931 9.52269 6.38739 9.71086 6.19923C9.89902 6.01106 10.0047 5.75585 10.0047 5.48975C10.0047 5.35669 10.0576 5.22909 10.1517 5.13501C10.2458 5.04092 10.3734 4.98807 10.5064 4.98807H11.5098C11.6428 4.98807 11.7704 5.04092 11.8645 5.13501C11.9586 5.22909 12.0114 5.35669 12.0114 5.48975C12.0114 5.75585 12.1172 6.01106 12.3053 6.19923C12.4935 6.38739 12.7487 6.4931 13.0148 6.4931H13.5165C13.6495 6.4931 13.7771 6.54596 13.8712 6.64004C13.9653 6.73413 14.0182 6.86173 14.0182 6.99478V7.49646H7.99802V6.99478C7.99802 6.86173 8.05087 6.73413 8.14496 6.64004C8.23904 6.54596 8.36664 6.4931 8.4997 6.4931V6.4931ZM15.5232 17.0284H6.49298V7.49646H6.99466C6.99466 7.76257 7.10037 8.01778 7.28854 8.20594C7.4767 8.39411 7.73191 8.49982 7.99802 8.49982H14.0182C14.2843 8.49982 14.5395 8.39411 14.7276 8.20594C14.9158 8.01778 15.0215 7.76257 15.0215 7.49646H15.5232V17.0284Z" fill="white"/>
<path d="M14.0182 9.50317H7.99802C7.86496 9.50317 7.73736 9.55603 7.64328 9.65011C7.54919 9.7442 7.49634 9.8718 7.49634 10.0049C7.49634 10.1379 7.54919 10.2655 7.64328 10.3596C7.73736 10.4537 7.86496 10.5065 7.99802 10.5065H14.0182C14.1512 10.5065 14.2788 10.4537 14.3729 10.3596C14.467 10.2655 14.5198 10.1379 14.5198 10.0049C14.5198 9.8718 14.467 9.7442 14.3729 9.65011C14.2788 9.55603 14.1512 9.50317 14.0182 9.50317Z" fill="white"/>
<path d="M14.0182 12.0116H7.99802C7.86496 12.0116 7.73736 12.0644 7.64328 12.1585C7.54919 12.2526 7.49634 12.3802 7.49634 12.5132C7.49634 12.6463 7.54919 12.7739 7.64328 12.868C7.73736 12.9621 7.86496 13.0149 7.99802 13.0149H14.0182C14.1512 13.0149 14.2788 12.9621 14.3729 12.868C14.467 12.7739 14.5198 12.6463 14.5198 12.5132C14.5198 12.3802 14.467 12.2526 14.3729 12.1585C14.2788 12.0644 14.1512 12.0116 14.0182 12.0116Z" fill="white"/>
<path d="M11.0081 14.52H7.99802C7.86496 14.52 7.73736 14.5728 7.64328 14.6669C7.54919 14.761 7.49634 14.8886 7.49634 15.0216C7.49634 15.1547 7.54919 15.2823 7.64328 15.3764C7.73736 15.4705 7.86496 15.5233 7.99802 15.5233H11.0081C11.1411 15.5233 11.2687 15.4705 11.3628 15.3764C11.4569 15.2823 11.5098 15.1547 11.5098 15.0216C11.5098 14.8886 11.4569 14.761 11.3628 14.6669C11.2687 14.5728 11.1411 14.52 11.0081 14.52Z" fill="white"/>
<path d="M10.6518 6.34763C10.6987 6.39412 10.7543 6.43091 10.8154 6.45587C10.8766 6.48084 10.942 6.49349 11.008 6.49311H11.1033C11.1366 6.48846 11.1688 6.47829 11.1987 6.46301C11.2295 6.45299 11.2583 6.43772 11.2839 6.41786L11.3642 6.35766C11.4099 6.30995 11.4457 6.25369 11.4696 6.19211C11.4966 6.12868 11.5103 6.06037 11.5097 5.99143C11.5122 5.95803 11.5122 5.9245 11.5097 5.8911C11.5042 5.85967 11.4941 5.82923 11.4796 5.8008C11.4686 5.76883 11.4534 5.73846 11.4345 5.71049L11.3743 5.63524C11.3276 5.58822 11.2721 5.5509 11.211 5.52543C11.1499 5.49996 11.0843 5.48685 11.0181 5.48685C10.9518 5.48685 10.8863 5.49996 10.8251 5.52543C10.764 5.5509 10.7085 5.58822 10.6619 5.63524C10.6136 5.68129 10.5749 5.7365 10.5482 5.79767C10.5215 5.85883 10.5073 5.9247 10.5063 5.99143C10.5071 6.05699 10.5208 6.12176 10.5465 6.18207C10.5704 6.24365 10.6062 6.29991 10.6518 6.34763V6.34763Z" fill="white"/>
<g clip-path="url(#clip0_117_36)">
<path d="M17.196 9.4113C17.504 9.10338 18.0041 9.10338 18.312 9.4113L18.7974 9.897C19.1053 10.2048 19.1053 10.7044 18.7974 11.0124L18.2012 11.6086L16.5998 10.0075L17.196 9.4113ZM17.9228 11.887L15.0502 14.7583C14.9221 14.8864 14.7632 14.9813 14.5895 15.0318L13.1073 15.4678C13.0036 15.4986 12.8914 15.4703 12.8149 15.3828C12.7384 15.3175 12.7098 15.2054 12.7403 15.1007L13.1763 13.6189C13.2275 13.4452 13.3215 13.2863 13.4497 13.1582L16.3214 10.2861L17.9228 11.887Z" fill="#FDFDFD"/>
</g>
<defs>
<linearGradient id="paint0_linear_117_36" x1="11.0083" y1="0" x2="11.0083" y2="22.0165" gradientUnits="userSpaceOnUse">
<stop stop-color="#F84F4F"/>
<stop offset="0.848958" stop-color="#FB7A7A"/>
</linearGradient>
<radialGradient id="paint1_radial_117_36" cx="0" cy="0" r="1" gradientUnits="userSpaceOnUse" gradientTransform="translate(3.78409 23.9086) rotate(-55.8025) scale(17.9538)">
<stop/>
<stop offset="1" stop-opacity="0"/>
</radialGradient>
<radialGradient id="paint2_radial_117_36" cx="0" cy="0" r="1" gradientUnits="userSpaceOnUse" gradientTransform="translate(5.27479 23.7939) rotate(-62.3005) scale(15.5414)">
<stop stop-color="white"/>
<stop offset="1" stop-color="white" stop-opacity="0"/>
</radialGradient>
<radialGradient id="paint3_radial_117_36" cx="0" cy="0" r="1" gradientUnits="userSpaceOnUse" gradientTransform="translate(23.3352 26.8326) rotate(-128.598) scale(16.7264)">
<stop/>
<stop offset="1" stop-opacity="0"/>
</radialGradient>
<radialGradient id="paint4_radial_117_36" cx="0" cy="0" r="1" gradientUnits="userSpaceOnUse" gradientTransform="translate(22.5325 25.4566) rotate(-128.577) scale(18.4814)">
<stop stop-color="white"/>
<stop offset="1" stop-color="white" stop-opacity="0"/>
</radialGradient>
<clipPath id="clip0_117_36">
<rect width="6.30682" height="6.30682" fill="white" transform="translate(12.7283 9.17352)"/>
</clipPath>
</defs>
</svg>
