<svg width="37" height="38" viewBox="0 0 37 38" fill="none" xmlns="http://www.w3.org/2000/svg">
<path fill-rule="evenodd" clip-rule="evenodd" d="M23.4625 6.36251V5H24.4625V6.36251L29.0501 6.36251V5H30.0501V6.36251C30.0501 6.91479 29.6023 7.36251 29.0501 7.36251H24.4625C23.9102 7.36251 23.4625 6.91479 23.4625 6.36251Z" fill="black"/>
<path fill-rule="evenodd" clip-rule="evenodd" d="M34.0001 5.12811H19.5125C18.4079 5.12811 17.5125 6.02354 17.5125 7.12811V34.6533C17.5125 35.7579 18.4079 36.6533 19.5124 36.6533H34.0001C35.1046 36.6533 36.0001 35.7579 36.0001 34.6533V7.12811C36.0001 6.02354 35.1046 5.12811 34.0001 5.12811ZM19.5125 4.12811C17.8556 4.12811 16.5125 5.47126 16.5125 7.12811V34.6533C16.5125 36.3101 17.8556 37.6533 19.5124 37.6533H34.0001C35.6569 37.6533 37.0001 36.3101 37.0001 34.6533V7.12811C37.0001 5.47126 35.6569 4.12811 34.0001 4.12811H19.5125Z" fill="black"/>
<path fill-rule="evenodd" clip-rule="evenodd" d="M23.9625 31.5657C23.9625 31.2896 24.1864 31.0657 24.4625 31.0657H29.05C29.3262 31.0657 29.55 31.2896 29.55 31.5657C29.55 31.8419 29.3262 32.0657 29.05 32.0657H24.4625C24.1864 32.0657 23.9625 31.8419 23.9625 31.5657Z" fill="black"/>
<path d="M20.2375 11.7481C20.2375 11.6542 20.3136 11.5781 20.4075 11.5781H21.93C22.0239 11.5781 22.1 11.6542 22.1 11.7481V13.2706C22.1 13.3645 22.0239 13.4406 21.93 13.4406H20.4075C20.3136 13.4406 20.2375 13.3645 20.2375 13.2706V11.7481Z" fill="black"/>
<path d="M20.2375 15.4732C20.2375 15.3793 20.3136 15.3032 20.4075 15.3032H21.93C22.0239 15.3032 22.1 15.3793 22.1 15.4732V16.9957C22.1 17.0896 22.0239 17.1657 21.93 17.1657H20.4075C20.3136 17.1657 20.2375 17.0896 20.2375 16.9957V15.4732Z" fill="black"/>
<path d="M20.2375 19.1982C20.2375 19.1043 20.3136 19.0282 20.4075 19.0282H21.93C22.0239 19.0282 22.1 19.1043 22.1 19.1982V20.7207C22.1 20.8146 22.0239 20.8907 21.93 20.8907H20.4075C20.3136 20.8907 20.2375 20.8146 20.2375 20.7207V19.1982Z" fill="black"/>
<path d="M23.9625 11.7481C23.9625 11.6542 24.0386 11.5781 24.1325 11.5781H25.655C25.7489 11.5781 25.825 11.6542 25.825 11.7481V13.2706C25.825 13.3645 25.7489 13.4406 25.655 13.4406H24.1325C24.0386 13.4406 23.9625 13.3645 23.9625 13.2706V11.7481Z" fill="black"/>
<path d="M23.9625 15.4732C23.9625 15.3793 24.0386 15.3032 24.1325 15.3032H25.655C25.7489 15.3032 25.825 15.3793 25.825 15.4732V16.9957C25.825 17.0896 25.7489 17.1657 25.655 17.1657H24.1325C24.0386 17.1657 23.9625 17.0896 23.9625 16.9957V15.4732Z" fill="black"/>
<path d="M23.9625 19.1982C23.9625 19.1043 24.0386 19.0282 24.1325 19.0282H25.655C25.7489 19.0282 25.825 19.1043 25.825 19.1982V20.7207C25.825 20.8146 25.7489 20.8907 25.655 20.8907H24.1325C24.0386 20.8907 23.9625 20.8146 23.9625 20.7207V19.1982Z" fill="black"/>
<path d="M27.6875 11.7481C27.6875 11.6542 27.7636 11.5781 27.8575 11.5781H29.38C29.4739 11.5781 29.55 11.6542 29.55 11.7481V13.2706C29.55 13.3645 29.4739 13.4406 29.38 13.4406H27.8575C27.7636 13.4406 27.6875 13.3645 27.6875 13.2706V11.7481Z" fill="black"/>
<path d="M27.6875 15.4732C27.6875 15.3793 27.7636 15.3032 27.8575 15.3032H29.38C29.4739 15.3032 29.55 15.3793 29.55 15.4732V16.9957C29.55 17.0896 29.4739 17.1657 29.38 17.1657H27.8575C27.7636 17.1657 27.6875 17.0896 27.6875 16.9957V15.4732Z" fill="black"/>
<path d="M27.6875 19.1982C27.6875 19.1043 27.7636 19.0282 27.8575 19.0282H29.38C29.4739 19.0282 29.55 19.1043 29.55 19.1982V20.7207C29.55 20.8146 29.4739 20.8907 29.38 20.8907H27.8575C27.7636 20.8907 27.6875 20.8146 27.6875 20.7207V19.1982Z" fill="black"/>
<path d="M31.4124 11.7481C31.4124 11.6542 31.4885 11.5781 31.5824 11.5781H33.1049C33.1988 11.5781 33.2749 11.6542 33.2749 11.7481V13.2706C33.2749 13.3645 33.1988 13.4406 33.1049 13.4406H31.5824C31.4885 13.4406 31.4124 13.3645 31.4124 13.2706V11.7481Z" fill="black"/>
<path d="M31.4124 15.4732C31.4124 15.3793 31.4885 15.3032 31.5824 15.3032H33.1049C33.1988 15.3032 33.2749 15.3793 33.2749 15.4732V16.9957C33.2749 17.0896 33.1988 17.1657 33.1049 17.1657H31.5824C31.4885 17.1657 31.4124 17.0896 31.4124 16.9957V15.4732Z" fill="black"/>
<path d="M31.4124 19.1982C31.4124 19.1043 31.4885 19.0282 31.5824 19.0282H33.1049C33.1988 19.0282 33.2749 19.1043 33.2749 19.1982V20.7207C33.2749 20.8146 33.1988 20.8907 33.1049 20.8907H31.5824C31.4885 20.8907 31.4124 20.8146 31.4124 20.7207V19.1982Z" fill="black"/>
<rect width="22.0165" height="22.0165" rx="3" fill="url(#paint0_linear_105_37)"/>
<rect width="22.0165" height="22.0165" rx="3" fill="url(#paint1_radial_105_37)" fill-opacity="0.5" style="mix-blend-mode:overlay"/>
<rect width="22.0165" height="22.0165" rx="3" fill="url(#paint2_radial_105_37)" style="mix-blend-mode:soft-light"/>
<rect width="22.0165" height="22.0165" rx="3" fill="url(#paint3_radial_105_37)" fill-opacity="0.5" style="mix-blend-mode:overlay"/>
<rect width="22.0165" height="22.0165" rx="3" fill="url(#paint4_radial_105_37)" style="mix-blend-mode:soft-light"/>
<path d="M15.5232 6.4931H14.9312C14.8277 6.20035 14.6362 5.94678 14.3829 5.76714C14.1296 5.58751 13.827 5.49062 13.5165 5.48975H13.0148C13.0148 5.09059 12.8562 4.70777 12.574 4.42553C12.2917 4.14328 11.9089 3.98471 11.5098 3.98471H10.5064C10.1073 3.98471 9.72444 4.14328 9.44219 4.42553C9.15994 4.70777 9.00137 5.09059 9.00137 5.48975H8.4997C8.18919 5.49062 7.88654 5.58751 7.63326 5.76714C7.37998 5.94678 7.18847 6.20035 7.08496 6.4931H6.49298C6.22687 6.4931 5.97167 6.59881 5.7835 6.78698C5.59533 6.97515 5.48962 7.23036 5.48962 7.49646V17.0284C5.48962 17.2945 5.59533 17.5497 5.7835 17.7378C5.97167 17.926 6.22687 18.0317 6.49298 18.0317H15.5232C15.7893 18.0317 16.0445 17.926 16.2327 17.7378C16.4208 17.5497 16.5266 17.2945 16.5266 17.0284V7.49646C16.5266 7.23036 16.4208 6.97515 16.2327 6.78698C16.0445 6.59881 15.7893 6.4931 15.5232 6.4931ZM8.4997 6.4931H9.00137C9.26748 6.4931 9.52269 6.38739 9.71086 6.19923C9.89902 6.01106 10.0047 5.75585 10.0047 5.48975C10.0047 5.35669 10.0576 5.22909 10.1517 5.13501C10.2458 5.04092 10.3734 4.98807 10.5064 4.98807H11.5098C11.6428 4.98807 11.7704 5.04092 11.8645 5.13501C11.9586 5.22909 12.0114 5.35669 12.0114 5.48975C12.0114 5.75585 12.1172 6.01106 12.3053 6.19923C12.4935 6.38739 12.7487 6.4931 13.0148 6.4931H13.5165C13.6495 6.4931 13.7771 6.54596 13.8712 6.64004C13.9653 6.73413 14.0182 6.86173 14.0182 6.99478V7.49646H7.99802V6.99478C7.99802 6.86173 8.05087 6.73413 8.14496 6.64004C8.23904 6.54596 8.36664 6.4931 8.4997 6.4931ZM15.5232 17.0284H6.49298V7.49646H6.99466C6.99466 7.76257 7.10037 8.01778 7.28854 8.20594C7.4767 8.39411 7.73191 8.49982 7.99802 8.49982H14.0182C14.2843 8.49982 14.5395 8.39411 14.7276 8.20594C14.9158 8.01778 15.0215 7.76257 15.0215 7.49646H15.5232V17.0284Z" fill="white"/>
<path d="M14.0182 9.50317H7.99802C7.86496 9.50317 7.73736 9.55603 7.64328 9.65011C7.54919 9.7442 7.49634 9.8718 7.49634 10.0049C7.49634 10.1379 7.54919 10.2655 7.64328 10.3596C7.73736 10.4537 7.86496 10.5065 7.99802 10.5065H14.0182C14.1512 10.5065 14.2788 10.4537 14.3729 10.3596C14.467 10.2655 14.5198 10.1379 14.5198 10.0049C14.5198 9.8718 14.467 9.7442 14.3729 9.65011C14.2788 9.55603 14.1512 9.50317 14.0182 9.50317Z" fill="white"/>
<path d="M14.0182 12.0116H7.99802C7.86496 12.0116 7.73736 12.0644 7.64328 12.1585C7.54919 12.2526 7.49634 12.3802 7.49634 12.5132C7.49634 12.6463 7.54919 12.7739 7.64328 12.868C7.73736 12.9621 7.86496 13.0149 7.99802 13.0149H14.0182C14.1512 13.0149 14.2788 12.9621 14.3729 12.868C14.467 12.7739 14.5198 12.6463 14.5198 12.5132C14.5198 12.3802 14.467 12.2526 14.3729 12.1585C14.2788 12.0644 14.1512 12.0116 14.0182 12.0116Z" fill="white"/>
<path d="M11.0081 14.52H7.99802C7.86496 14.52 7.73736 14.5728 7.64328 14.6669C7.54919 14.761 7.49634 14.8886 7.49634 15.0216C7.49634 15.1547 7.54919 15.2823 7.64328 15.3764C7.73736 15.4705 7.86496 15.5233 7.99802 15.5233H11.0081C11.1411 15.5233 11.2687 15.4705 11.3628 15.3764C11.4569 15.2823 11.5098 15.1547 11.5098 15.0216C11.5098 14.8886 11.4569 14.761 11.3628 14.6669C11.2687 14.5728 11.1411 14.52 11.0081 14.52Z" fill="white"/>
<path d="M10.6518 6.34763C10.6987 6.39412 10.7543 6.43091 10.8154 6.45587C10.8766 6.48084 10.942 6.49349 11.008 6.49311H11.1033C11.1366 6.48846 11.1688 6.47829 11.1987 6.46301C11.2295 6.45299 11.2583 6.43772 11.2839 6.41786L11.3642 6.35766C11.4099 6.30995 11.4457 6.25369 11.4696 6.19211C11.4966 6.12868 11.5103 6.06037 11.5097 5.99143C11.5122 5.95803 11.5122 5.9245 11.5097 5.8911C11.5042 5.85967 11.4941 5.82923 11.4796 5.8008C11.4686 5.76883 11.4534 5.73846 11.4345 5.71049L11.3743 5.63524C11.3276 5.58822 11.2721 5.5509 11.211 5.52543C11.1499 5.49996 11.0843 5.48685 11.0181 5.48685C10.9518 5.48685 10.8863 5.49996 10.8251 5.52543C10.764 5.5509 10.7085 5.58822 10.6619 5.63524C10.6136 5.68129 10.5749 5.7365 10.5482 5.79767C10.5215 5.85883 10.5073 5.9247 10.5063 5.99143C10.5071 6.05699 10.5208 6.12176 10.5465 6.18207C10.5704 6.24365 10.6062 6.29991 10.6518 6.34763Z" fill="white"/>
<g clip-path="url(#clip0_105_37)">
<path d="M17.196 9.4113C17.504 9.10338 18.0041 9.10338 18.312 9.4113L18.7974 9.897C19.1053 10.2048 19.1053 10.7044 18.7974 11.0124L18.2012 11.6086L16.5998 10.0075L17.196 9.4113ZM17.9228 11.887L15.0502 14.7583C14.9221 14.8864 14.7632 14.9813 14.5895 15.0318L13.1073 15.4678C13.0036 15.4986 12.8914 15.4703 12.8149 15.3828C12.7384 15.3175 12.7098 15.2054 12.7403 15.1007L13.1763 13.6189C13.2275 13.4452 13.3215 13.2863 13.4497 13.1582L16.3214 10.2861L17.9228 11.887Z" fill="#FDFDFD"/>
</g>
<defs>
<linearGradient id="paint0_linear_105_37" x1="11.0083" y1="0" x2="11.0083" y2="22.0165" gradientUnits="userSpaceOnUse">
<stop stop-color="#F84F4F"/>
<stop offset="0.848958" stop-color="#FB7A7A"/>
</linearGradient>
<radialGradient id="paint1_radial_105_37" cx="0" cy="0" r="1" gradientUnits="userSpaceOnUse" gradientTransform="translate(3.78409 23.9086) rotate(-55.8025) scale(17.9538)">
<stop/>
<stop offset="1" stop-opacity="0"/>
</radialGradient>
<radialGradient id="paint2_radial_105_37" cx="0" cy="0" r="1" gradientUnits="userSpaceOnUse" gradientTransform="translate(5.27479 23.7939) rotate(-62.3005) scale(15.5414)">
<stop stop-color="white"/>
<stop offset="1" stop-color="white" stop-opacity="0"/>
</radialGradient>
<radialGradient id="paint3_radial_105_37" cx="0" cy="0" r="1" gradientUnits="userSpaceOnUse" gradientTransform="translate(23.3352 26.8326) rotate(-128.598) scale(16.7264)">
<stop/>
<stop offset="1" stop-opacity="0"/>
</radialGradient>
<radialGradient id="paint4_radial_105_37" cx="0" cy="0" r="1" gradientUnits="userSpaceOnUse" gradientTransform="translate(22.5325 25.4566) rotate(-128.577) scale(18.4814)">
<stop stop-color="white"/>
<stop offset="1" stop-color="white" stop-opacity="0"/>
</radialGradient>
<clipPath id="clip0_105_37">
<rect width="6.30682" height="6.30682" fill="white" transform="translate(12.7283 9.17352)"/>
</clipPath>
</defs>
</svg>
