<svg width="23" height="23" viewBox="0 0 23 23" fill="none" xmlns="http://www.w3.org/2000/svg">
<path fill-rule="evenodd" clip-rule="evenodd" d="M1 6V21.0013C1 21.5614 1.45107 22 2.00748 22H16V17.0059C16 15.8866 16.8945 15 17.9979 15H22V6H1ZM1 5V1.99875C1 1.44715 1.43861 1 1.99875 1H21.0013C21.5528 1 22 1.44995 22 2.00685V5H1ZM16.5 23H2.00011C0.895478 23 0 22.0984 0 20.9991V2.00086C0 0.895817 0.901627 0 2.00086 0H20.9991C22.1042 0 23 0.894514 23 1.99406V15.5V16L17 23H16.5ZM17 21.5V17.0088C17 16.4516 17.4507 16 17.9967 16H21.7L17 21.5ZM3 9V10H20V9H3ZM3 12V13H20V12H3ZM3 15V16H14V15H3ZM3 18V19H14V18H3Z" fill="#b7b7b7"/>
</svg>
